<svg xmlns="http://www.w3.org/2000/svg" xmlns:xlink="http://www.w3.org/1999/xlink" viewBox="0 0 53 76" fill="#fff" fill-rule="evenodd" stroke="#000" stroke-linecap="round" stroke-linejoin="round"><style><![CDATA[.B{stroke-linejoin:miter}.C{fill-rule:nonzero}.D{stroke-width:.123}.E{fill:url(#D)}.F{fill:url(#E)}]]></style><use xlink:href="#Q" x=".5" y=".5"/><defs><linearGradient id="A" y2="-10.47%" x2="60.25%" y1="105.14%" x1="39.61%"><stop stop-color="#486e3b" offset="0%"/><stop stop-color="#6a8e44" offset="100%"/></linearGradient><linearGradient id="B" y2="-0.01%" x2="50.01%" y1="100.00%" x1="50.01%"><stop stop-color="#245931" offset="0%"/><stop stop-color="#42765a" offset="100%"/></linearGradient><linearGradient id="C" y2="0.00%" x2="50.01%" y1="100.00%" x1="50.01%"><stop stop-color="#245931" offset="0%"/><stop stop-color="#42765a" offset="100%"/></linearGradient><linearGradient id="D" y2="0.02%" x2="50.00%" y1="100.00%" x1="50.00%"><stop stop-color="#486e3b" offset="0%"/><stop stop-color="#6a8e44" offset="100%"/></linearGradient><linearGradient id="E" y2="0.01%" x2="50.00%" y1="100.00%" x1="50.00%"><stop stop-color="#4e8240" offset="0%"/><stop stop-color="#70984a" offset="71.4%"/></linearGradient><linearGradient id="F" y2="0.00%" x2="49.99%" y1="100.01%" x1="49.99%"><stop stop-color="#5b8a43" offset=".6%"/><stop stop-color="#889e47" offset="71.4%"/></linearGradient><linearGradient id="G" y2="49.80%" x2="80.84%" y1="50.32%" x1="-17.10%"><stop stop-color="#656241" offset="0%"/><stop stop-color="#503934" offset="100%"/></linearGradient><linearGradient id="H" y2="-1.15%" x2="49.56%" y1="101.18%" x1="50.50%"><stop stop-color="#6a8e44" offset="0%"/><stop stop-color="#70984a" offset="71.4%"/></linearGradient><linearGradient id="I" y2="10.18%" x2="42.58%" y1="89.72%" x1="58.52%"><stop stop-color="#567738" offset="0%"/><stop stop-color="#688e44" offset="71.4%"/></linearGradient><linearGradient id="J" y2="-0.00%" x2="50.00%" y1="100.00%" x1="50.00%"><stop stop-color="#486e3b" offset="0%"/><stop stop-color="#6a8e44" offset="100%"/></linearGradient><linearGradient id="K" y2="0.00%" x2="50.00%" y1="100.00%" x1="50.00%"><stop stop-color="#729345" offset="12.4%"/><stop stop-color="#889e47" offset="71.4%"/></linearGradient><linearGradient id="L" y2="0.00%" x2="50.00%" y1="100.00%" x1="50.00%"><stop stop-color="#5b8a43" offset=".6%"/><stop stop-color="#889e47" offset="71.4%"/></linearGradient><linearGradient id="M" y2="-0.28%" x2="43.05%" y1="96.46%" x1="58.26%"><stop stop-color="#4e8240" offset="0%"/><stop stop-color="#70984a" offset="71.4%"/></linearGradient><linearGradient id="N" y2="-0.00%" x2="50.00%" y1="100.00%" x1="50.00%"><stop stop-color="#4e8240" offset="0%"/><stop stop-color="#70984a" offset="71.4%"/></linearGradient><linearGradient id="O" y2="-4.11%" x2="64.73%" y1="101.00%" x1="30.76%"><stop stop-color="#4e8240" offset="0%"/><stop stop-color="#70984a" offset="71.4%"/></linearGradient><linearGradient id="P" y2="4.41%" x2="81.13%" y1="96.30%" x1="0.89%"><stop stop-color="#4e8240" offset="0%"/><stop stop-color="#70984a" offset="71.4%"/></linearGradient></defs><symbol id="Q" overflow="visible"><g stroke="#486e3b" class="B C D"><path d="M51.32 49.087c-.175-.193-1.926.689-2.175.541s-.185-.533-.487-.699-.071 1.344-.47 1.491-.115-.378-.31-.508-.49.801-.852.824-.407 1.101-.712 1.14-.048-.22-.35-.383-.969 1.949-1.203 1.941.372-1.178.178-1.31-.299.384-.587.362-.958 1.542-1.192 1.536-.784-.317-1.11-.216-.453 2.18-.92 2.168.336 2.294.043 2.473-.395-.055-.496-.293.199-2.122-.015-2.19.625-1.236.323-1.401-.728 1.001-1.035 1.039-.12-.925-.3-.914-.555 1.19-.754 1.265-.418-.543-.603-.33-1.195 2.288-.718 2.643-.806 1.249-.539 1.332.034.832-.206 1.028.042-1.624-.213-1.57-.812 2.204-.422 2.461.417.543.123.723-.379.085-.653.206c-.272.115-.211 1.229-.498 1.206s.411-3.355.122-3.376-.887.948-1.102.881-.901.302-1.126.641-.893-.402-1.086.016-.818-.262-1.24-.055-1.15.149-1.467-.156-.547.59-.938.332-2.835 2.068-2.382 2.687-1.634 2.988-1.386 3.134 4.538 1.528 4.529.148 1.614.721 1.476-.09 1.302-1.046 1.562-.552 1.011 1.692 1.313 1.854.066-1.139.596-.767.478-.395.76-.17.714-.39 1.134-.599-.16-.8-.555-.858-.408-.948.021-.813.784.317 1.139.496 1.278.064 1.551-.055-.096-.44-.125-.724 1.656-.022 1.521-.339-.819-.394-1.354-.564 1.073-.411.704-.734-1.56.464-1.843.238 1.025-.631 1.356-.938.335-1.054.568-1.049.81.051 1.219.248 1.001-1.117 1.385-.654.685-.671.568-1.049 1.195-.238 1.425-.78 1.228.593 1.337-.124 1.181-1.129.898-1.356-.961.244-1.482.215-.725-.501-1.1-.62-.289.729-.743.858-.501-.09-.642-.204.493-.252.488-.8 1.117.011 1.443-.092-.332-.445-.38-.667.776-.027 1.083-.067-.178-.739-.047-.97.726-.247 1.121-.191 1.525-1.841 1.389-2.158-.537-.169-.858-.27.698-.532.236-.746.548-.988.743-.859.342.04.751.237-.34-.79.061-.937.92-.119 1.295 0-.315-1.056-.114-1.129 2.508-.849 2.332-1.042z" fill="url(#A)"/><path d="M25.851 25.192c.231 0 .417.513.744.558s.233-.884.465-.837.324.839.744.837.558-.977.839-1.025 0 .188.371.095-.047-.697.186-.744.418.373.558.187-.14-.606.186-.559 0 1.489 0 1.489h.466s.047-.837.28-.837.697.186.836.37-.557.84-.091.933 1.162-.047 1.302.092.372.326 0 .466-1.35.002-1.675.279.231.604.093.744-.56.186-.932.279-.512.606-.279.651.233-.418.559-.278.559-.466.932-.373 1.115.28 1.115.744.14 2.047-.279 2.233-1.768-1.022-1.954-.558-.652.046-1.117.186-.464.464-.464.464.231.606.464.746.418-.559.651-.466.885-.093 1.118.186.093 1.536-.186 1.582-.792-.559-1.118-.559-.187.326-.28.466.792.699.559.746-.977-1.07-1.208-.839-.42-.186-.652-.093.513.792.279.932-.559-1.118-.745-.839.465 1.534.279 1.767-3.07 1.396-3.63 1.304-2.512 2.698-2.512 2.698l-1.024-1.861-.093-8.935s1.722-1.489 2.047-1.303.605.095.932.372.602-.419.836-.279.234-.511.651-.373.512-.654.744-.654z" fill="url(#B)"/><path d="M18.548 40.756c-.197 0-.352.513-.627.559s-.194-.884-.39-.837-.274.837-.625.837-.469-.977-.704-1.025 0 .188-.313.095.037-.697-.156-.744-.352.373-.47.187.117-.606-.157-.559 0 1.487 0 1.487h-.39s-.039-.835-.234-.835a1.09 1.09 0 0 0-.704.37c-.117.186.469.84.079.931s-.978-.046-1.096.094-.312.326 0 .466 1.134 0 1.407.279-.194.604-.077.744.47.186.783.279.43.606.233.651-.194-.417-.469-.278-.47-.466-.781-.373-.938.28-.938.744-.117 2.049.234 2.233 1.485-1.023 1.642-.557.546.047.938.184.39.466.39.466-.197.605-.39.746-.352-.559-.548-.466-.742-.092-.938.185c-.196.281-.079 1.538.156 1.584s.665-.559.939-.559.158.326.235.466-.664.699-.47.746.82-1.072 1.017-.839.352-.187.548-.093-.431.792-.234.932.469-1.119.624-.839-.39 1.536-.234 1.767 2.58 1.396 3.049 1.303 2.111 2.699 2.111 2.699l.86-1.862.079-8.933s-1.447-1.489-1.721-1.303-.507.093-.783.373-.507-.419-.703-.279-.194-.512-.547-.373c-.347.138-.427-.653-.621-.654z" fill="url(#C)"/><path d="M7.609 32.823c-.188.047-.047.651.188.651s.091.559-.188.559.466 1.116.279 1.116.093.28-.091.464-.376-.231-.466 0 .464.746.185 1.118.652.232.838.464-.14.373.094.558.79.279.559.559.556.279.651.651.185.93 0 1.023-.325-.884-.558-.929-.326.185-.559.185.185-.651 0-.93-.14 0-.466 0-.837-.698-1.117-.651-.233.698-.651.371-.512.326-.372.371.559.188.837.095 1.07.559.744.651.559.932.281 1.023-.513.28-.466.466 1.442.187 1.023.466 1.026.14.839.651.279 1.443 0 1.396-.046.419-.372.466.466.512.279.837-.374.326-.559.373-.657-.533-.725-.291-.254.011-.485-.082-.513-.093-.559.093.791.093.559.373.51.883.466 1.21-.559.371-.652.651 1.676.606 1.397.93.512.281.652.187-.279-.651-.093-.651.279.325.465.371.417-.651.559-.651-.096.559.279.651-.375.233-.558.467-.464.511-.186.742 1.629-.185 1.489.28.791.605.651.837-.651.279-.93.372-.047.374.186.466.699.048.837.092-.138.559 0 .838.371.048.742.187.096 1.348.467 1.208.653-.138.93 0-1.441.745-1.208.932.93.233 1.301.373.093.372.186.745.744.558 1.117.558.093-1.35.465-1.21.558.79.651 1.023 1.629-.464 1.116.373c-.248.405 2.699-.222 2.419.633s3.072.018 3.072.018l-.374-6.329-1.395-.093c-.324 0-.65-.837-1.117-.93s-.185.371-.743.371-.606-2.278-1.025-1.674-.511-.744-.837-.557-.837-.606-1.023-.187-.42.698-.744.744-.372-1.303-.746-1.023-.324-.837-.744-.744.93-1.396.744-1.676-.977.233-1.301.093.651-1.163.557-1.488-.604-.559-.929-.559-.047-.932-.373-.746-.373-.511-.744-.464-.188-.791-.466-.746.14-.466-.278-.466-.093-.558-.186-.837-.096 0-.373 0 .278-.511.093-.651-.233.14-.466.187-.186-.326-.092-.466.278-.187.464-.28.14-1.115-.186-.93-.233-.837-.466-.837-.187.745-.465.745.278-.932-.093-.932-.048-.883-.279-.93-.279.557-.465.557-.14-.79-.186-1.023-.14-.093-.466-.186-.047-.606-.28-.559.093-.649-.093-.742c-.186-.099-.279-.424-.466-.377z" class="E"/><path d="M4.856 11.609c.233 0 .558 1.674.837 1.954s.512-.513.652-.373-.42 1.256-.28 1.396.233-.094.373 0-.327.326-.093.559.462-.14.65 0-.233 1.163 0 1.394.373-.231.653-.186-.14.978.185 1.023.465.794.747.653.323 1.023.185 1.303-.372.186-.653.28-.28.977-.091 1.21.372.28.651.278.837.885.464 1.025.14 1.116-.093 1.21-.557-.047-.557.28.324.559.65.651.699.233 1.118.093.93.884.559.93.371 1.536.649 1.676-.279-1.396.186-1.303-.371-.744 0-.744-1.072-.79-1.022-.93 1.115-.093 1.487 0 .466-.792.746-.652-.186.93-.093 1.21.324.651.744.651-.373 1.629 0 1.582-.233.792 0 .837.419-.138.65-.186.327.932.652.932.093.697.279.744.325-.046.651 0 .466.698.837.651-.233-.697.093-.651.744.605 1.023.466-.047.652.372.651 1.954 1.442 2.326 1.396.094 2.142.094 2.142l-2.513.651c-.326 0-1.117-.884-1.676-.744s-.883-.792-1.115-.465-1.163-1.954-1.489-1.676.464-.418.464-.558-.511-.326-.743-.279-.604.838-.93.837.14-.93.093-1.21-.56-.046-.746 0 .186.14-.093.279-.606-.511-1.022-.279-1.724-.929-1.491-1.21 1.165-.324 1.491-.651-.839.093-.653-.279-.372.372-.653.186.048-1.165-.186-1.396-1.163.513-.836-.093-.604-1.07-.372-1.489-1.351-.418-.932-.464 0-.513-.281-.744-.324.091-.742 0-.093-.932-.093-1.212-.604-.697-.837-.744.047-.465-.186-.653-1.582-1.068-1.582-1.301.977-.326 1.21-.373.279-.326 0-.466-.93-.929-.93-1.115 1.163.464 1.21.093.513.509.744.37-.604-1.488-.371-1.581.791.419.93.278-1.535-1.208-1.116-1.3-.512-.887-.279-.933.791.093 1.023.093-.417-.278-.373-.464a.63.63 0 0 0-.372-.652c-.279-.093.093-1.116.093-1.116s-.511-1.489-.278-1.489z" class="F"/><path d="M7.051 11.044c.186-.094 1.35.885 1.583.838s.279-.324.559-.372-.279.93 0 1.116.185-.233.372-.28.186.653.466.746.047.837.278.93.094-.14.373-.187.279 1.536.465 1.583 0-.883.185-.93.142.325.375.373.371 1.255.557 1.302.697-.047.93.093-.186 1.582.187 1.676-.837 1.489-.651 1.676.324.047.464-.093.373-1.489.559-1.489-.186-.977.093-1.025.324.839.557.932.327-.604.466-.559.138.93.278 1.023.466-.279.559-.093.372 1.816-.093 1.954.326 1.027.093 1.025-.233.559-.093.745.372-1.116.557-1.025.093 1.676-.278 1.769-.466.279-.279.466.279.14.466.278-.14.885.091.932.513-2.373.746-2.326.465.837.652.837-.373.28-.28.558.791.419.837.746-.465.326-.186.557.604.513.93.373.093.651.466.558 1.814 3.118 1.304 3.443-.792 1.538-1.024 1.582-1.862-2.045-2.14-2.139-.048-.328.185-.281-.047-.604-.278-.558-.931.697-1.211.745.231-.792-.278-.652-.279-.373-.558-.28-.466-.419-.745-.652.326-.511.649-.464c.328.045.561-.558.189-.559s-.698.046-1.024.093-1.023-.231-1.21-.371.187-.28.28-.466-1.305-.373-1.117-.561.744-.09 1.21-.09-.746-.512-.373-.652 1.116.652 1.397.559-.653-.652-.837-.932 0-.79-.186-.837-.652-.14-1.023-.093-.513-.977-.93-.744-.373-.604-.186-.839-.885-.419-.932-.837-1.115.141-1.023-.371-.651-1.025-.372-1.118.698.373 1.117.466.698-.187 1.023-.187.047.559.373.744.418.047.557 0-.326-.278-.186-.651-.884-.232-1.117-.373.373-.232.464-.373-.604-.186-.836-.277.326-.464.279-.653-.513-.324-.837-.373-.744-1.581-.557-1.767.462.002.743 0-.419-.512 0-.557-.186-.792-.373-.746-.279-.047-.651 0 .463-.464.186-.651-.698-.279-1.025-.279.513-.651.373-.746c-.138-.083-1.767-1.106-1.581-1.2z" fill="url(#F)"/></g><path d="M21.473 74.293c-.498-.259-.242-.575-.81-.642-1.134-.134-.657-11.923-.495-16.448s.566-8.526.325-13.597-.388-20.653.077-22.744 1.11-4.381 1.11-4.381.294 2.245.767 4.291 1.371 20.26 1.504 23.078.058 9.783.783 13.136 2.047 15.334 1.52 16.111c-.265.39-1.45.821-1.907 1.126s-.181.479-.652.501-1.725-.174-2.223-.431z" stroke="#656241" fill="url(#G)" class="B C D"/><g stroke="#486e3b"><path d="M38.371 51.927s-.098-.513-.076-.688.287.019.399-.092.048-.304.027-.5.557-.135.703-.274-.079-.736-.015-.893.5.095.484-.051-.392-.231-.365-.357.652.003.727-.082.147-.511.252-.67.182.153.346.16.223-.2.291-.329.348.207.327.013.314-.506.421-.641.488-.005.511.191.648-.045.635-.168-.303-.164-.279-.317.769-.059.964-.154-.048-.442.01-.647.318-.084.48-.101.043-.352.291-.329.144-.14.555-.161.14-.585.167-.712.701.047.678.224.446-.024.721-.129-.363-.332.124-.361-.222-.522.199-.419.866-1.036.985-.702.321.312.526.339.712-.598.845-.49-.162.39-.188.517.641-.119.641-.119l.451-.347s.517-.132.571-.013-.415.318-.349.535-.576.336-.523.453-.181-.178-.333-.064-.837.193-.695.374-.119.411-.351.535-.967.106-.967.106l-.56.111s-.249.325.043.392-.839.165-.786.286.608-.042.662.075-.421.27-.206.369-.677.148-.785.285-.275.476-.185.565-.397.093-.386.191.084.388.053.492-.324.01-.311.132-.393.516-.339.633.376-.29.547-.209-.244.374-.106.508-.723.872-.313.877-1.206.926-1.206.926l-5.311.729z" fill="url(#H)" class="B C D"/><path d="M23.855 45.564s-.284-.716-.302-.978.424-.053.554-.246-.016-.456-.1-.734.773-.354.948-.598-.324-1.049-.271-1.295.755-.002.69-.212-.636-.225-.633-.416.953-.178 1.036-.32.071-.787.18-1.047.305.172.546.137.271-.352.332-.561.567.207.48-.073.315-.822.434-1.051.709-.143.796.138.932-.249.879-.424-.49-.156-.498-.384 1.105-.301 1.361-.493-.194-.63-.165-.943.438-.212.669-.281c.229-.074-.035-.527.331-.562s.177-.246.763-.389.04-.892.045-1.083 1.03-.127 1.047.135.643-.16 1.014-.389-.622-.383.08-.561-.467-.696.172-.665.972-1.752 1.239-1.297.553.365.861.345.866-1.07 1.094-.95-.127.614-.132.807.898-.354.898-.354l.563-.633s.714-.333.828-.177-.515.578-.363.876-.744.651-.632.807-.316-.209-.502.002-1.166.513-.908.737-.058.63-.36.877-1.381.424-1.381.424l-.782.318s-.275.541.17.559-1.174.476-1.062.635c.109.154.872-.23.983-.074s-.537.508-.195.595-.946.404-1.065.633-.265.771-.108.874-.554.246-.51.389.23.541.215.698-.471.106-.418.281-.429.86-.317 1.014.468-.524.741-.458c.273.071-.252.614-.014.771s-.807 1.472-.21 1.364-1.496 1.684-1.496 1.684L23.85 45.57z" fill="url(#I)" class="B C D"/><path d="M41.059 32.353c-.164-.12-1.344.895-1.56.824s-.228-.39-.485-.466.172 1.078-.108 1.266-.151-.278-.32-.347-.236.723-.506.807-.124.946-.35 1.033-.075-.165-.332-.239-.406 1.716-.584 1.754.083-.999-.085-1.068-.163.358-.384.392-.469 1.394-.647 1.433-.649-.11-.879.032.022 1.806-.335 1.883.643 1.752.45 1.947-.308.027-.426-.141-.205-1.716-.38-1.73.267-1.091.011-1.168-.384.924-.611 1.012-.247-.71-.382-.668-.218 1.043-.36 1.136-.409-.354-.513-.148-.52 2.026-.099 2.219-.401 1.136-.183 1.154.164.651.016.85-.242-1.293-.425-1.202-.246 1.889.093 2.023.408.355.217.549-.274.136-.463.279.047 1.012-.175 1.047-.252-2.728-.474-2.694-.516.913-.689.898-.633.403-.746.712-.746-.156-.823.209-.668-.058-.949.183-.85.328-1.142.145-.316.568-.655.432-1.804 2.15-1.357 2.561-.737 2.661-.525 2.73 3.702.386 3.464-.704 1.345.277 1.104-.34.813-1.064 1.093-.722 1.051 1.154 1.308 1.229-.141-.914.323-.715.297-.4.55-.273.475-.439.758-.681-.257-.604-.563-.577-.47-.676-.122-.646.649.108.95.184.978-.183 1.166-.326-.148-.331-.217-.549 1.253-.318 1.097-.545-.686-.163-1.121-.201.743-.521.408-.708-1.105.652-1.357.522.669-.686.872-.988.074-.895.254-.935.621-.104.966-.024.571-1.065.941-.77.406-.655.255-.933.864-.405.948-.876 1.032.246.993-.342.707-1.107.454-1.235-.687.366-1.088.439-.636-.265-.94-.291-.096.63-.419.813-.396.021-.523-.044.332-.291.237-.721.848-.194 1.08-.334-.327-.294-.401-.459.584-.164.808-.249-.257-.552-.197-.76.51-.33.818-.357.848-1.734.692-1.959-.435-.037-.695-.061.438-.545.051-.631.251-.88.419-.813.267-.032.611.051-.394-.564-.112-.754.679-.26.983-.234-.416-.779-.278-.874 1.764-1.129 1.597-1.25z" class="B C D E"/><path d="M2.13 54.271c.112-.154 1.422.558 1.593.442s.098-.431.303-.561.135 1.076.429 1.195.061-.302.191-.406.4.644.661.662.359.884.581.914.021-.175.228-.307.813 1.565.982 1.562-.34-.948-.209-1.051.236.309.441.291.782 1.237.949 1.234.542-.252.783-.169.46 1.745.794 1.738-.101 1.835.122 1.978.278-.042.335-.233-.273-1.7-.124-1.755-.525-.99-.318-1.121.582.803.805.836.029-.741.159-.733.469.956.617 1.015.267-.432.411-.262.998 1.836.678 2.119.654 1.001.467 1.067.029.667.212.826-.132-1.303.055-1.257.718 1.764.457 1.97-.266.434-.045.58.278.068.48.166.228.984.433.967-.502-2.688-.298-2.704.696.763.845.708.664.245.844.518.617-.321.78.013.572-.206.885-.039.836.122 1.043-.121.427.474.69.267 2.158 1.664 1.874 2.159 1.357 2.399 1.186 2.514-3.155 1.211-3.234.106-1.11.573-1.062-.077-.998-.84-1.152-.447-.62 1.351-.826 1.481-.117-.913-.475-.615-.367-.318-.555-.136-.533-.315-.848-.483.064-.641.344-.686.233-.757-.064-.651-.543.251-.787.394-.909.048-1.113-.048.043-.352.047-.578-1.189-.022-1.11-.277.56-.314.933-.448-.795-.332-.55-.588 1.147.374 1.335.194-.772-.51-1.03-.754-.303-.847-.471-.843-.577.04-.858.198-.786-.9-1.033-.529-.53-.542-.47-.844-.871-.193-1.068-.628-.842.472-.964-.103-.918-.906-.728-1.088.702.198 1.075.175.487-.399.749-.493.252.585.584.689.356-.071.447-.161-.367-.206-.397-.643-.801.006-1.041-.077.21-.355.231-.532-.557-.026-.779-.058.084-.591-.027-.777-.537-.201-.815-.158-1.206-1.478-1.128-1.73.372-.133.597-.214-.533-.427-.213-.598-.454-.792-.586-.687-.243.029-.522.186.194-.633-.101-.75-.667-.098-.929-.003.159-.845.013-.906-1.847-.684-1.734-.837z" fill="url(#J)" class="B C D"/><path d="M48.773 34.308c.164.047-.24 1.381-.099 1.486s.418-.053.58.08-.977.458-1.026.745.292-.046.414.031-.52.545-.486.77-.751.586-.738.787.169-.04.33.094-1.294 1.189-1.257 1.328.812-.591.935-.513-.241.299-.183.466-.999 1.059-.962 1.199.339.376.311.607-1.535.948-1.463 1.227-1.726.505-1.817.739.096.22.284.209 1.528-.776 1.607-.668.82-.76.982-.63-.633.75-.621.949.696-.212.714-.101-.797.704-.823.85.455.084.322.263-1.511 1.432-1.837 1.252-.803.874-.901.737-.614.24-.725.443 1.186-.527 1.179-.356-1.502 1.173-1.744 1.017-.455-.085-.548.149-.01.255-.058.458-.874.509-.818.676 2.401-1.285 2.459-1.12-.572.834-.493.942-.098.641-.316.882.419.418.138.662.307.416.212.734.05.746.316.844-.356.514-.112.67-1.125 2.36-1.641 2.277-1.964 1.915-2.105 1.809-1.747-2.28-.734-2.702-.751-.754-.136-.922.586-1.11.189-1.117-1.378-.09-1.541-.223.827-.392.479-.598.225-.413.022-.514.186-.553.283-.87.609-.153.704.071.752-.045.592-.264-.34-.378-.52-.538-.223-.753-.173-.958.337-.077.547-.148-.212-1.011.039-1.027.402.374.6.646.154-.776.441-.652-.125 1.089.081 1.189.321-.814.499-1.11.728-.529.691-.67-.149-.474-.351-.661.681-.954.29-1.043.396-.622.69-.668.01-.799.375-1.105-.603-.561-.093-.848.663-1.065.869-.964-.047.657.047.966.466.284.608.474-.495.402-.527.715.135.278.238.328.117-.378.52-.545-.164-.671-.133-.901.373.061.54.024-.085-.48-.098-.678.565-.119.716-.273.082-.514-.014-.737 1.139-1.492 1.39-1.509.197.273.318.435.29-.588.513-.371.647-.638.525-.717-.075-.195-.276-.382.626-.038.677-.326-.04-.594-.178-.785.816-.135.844-.28c.022-.136.271-1.775.437-1.729z" class="B C D F"/><path d="M27.712.111c-.282.021-.714 1.367-.977 1.395s-.559-2.245-.559-1.256.617 1.872.42 2.095-.33.32-.559.419-.165-1.621-.417-1.537-.076 2.245.279 2.234.12 1.401-.279 1.397-.333-2.061-.699-1.955-.382 1.809-.558 1.955-.763-.628-.836-.279 1.012.985.836 1.256-.498-.01-.558.278-.383 1.194 0 1.256-.572.934-.278.979.194.821.464 1.025.056 1.144-.278 1.115-.042-.241-.373-.653-.528-1.69-.65-1.86-.447-.013-.839-.094-.547-1.385-.837-1.396-.263.503-.093.652.387.191.278.464-.677-.235-.649.093.618.567 1.022.559.758 1.891 1.025 2.047.706.334.743.651-.599.06-.465.373-.582.288-.371.559-.136 1.004.186 1.117.284.635.743.559.404-.562.837-.652 1.368-2.39 1.675-2.419.522-.209.932-.93-.603.202-.466-.185 1.812-2.055 1.676-2.328-.77.731-1.117.744.316-.545.278-.744-.271-.394-.744-.187-1.177.575-1.489.464.624-.826.93-.837.67-.59.932-.558.292-.524.093-.652-.699.277-.746 0 .015-1.219.279-1.116-.002.424.28.559.207.159.464 0-.82-1.645-.464-1.862-.13-1.02.186-1.023.548-1.235.837-1.21.184-.535-.097-.511z" fill="url(#K)" class="B C D"/><path d="M27.432 11.417c.295-.075.792 1.303.466 1.583s-1.434 1.243-1.023 1.489-1.915 1.33-1.676 1.488 1.115-.948 1.49-.835-.034.228.465.464.362-.614.651-.557-.402.808-.093 1.022.705.529 1.025.186.398-1.075.836-.929.573-.221.838 0 .185 1.208 0 1.395-.65-.077-.93 0 .28.711 0 .839-1.526.731-1.861.465-.9-.026-1.023.185.242.541.465.745-.385 1.295-.746 1.301-1.091.373-.65.559 1.975-1.088 2.324-.93.916-.761 1.211-.744.332 1.295-.091 1.211c-.424-.088-2.543.618-2.701.929s-.66 1.038-.372 1.116.117 1.088-.093 1.21-1.328.331-1.394.559.518.409.557.651-.271.019-.557.093-.678.717-.373.837-1.116.932-1.116.932l-.93.278s-2.031-2.121-2.419-2.047-.839-.371-.839-.371-.198-.047-.466-.279.559 0 .559 0-.063-.294-.186-.559-.521-.289-.837-.093-.771.023-1.023-.187-.279-.558-.279-.558-1.41-.847-1.024-.837.853.479 1.21.464.546.429.932.466.921.407.836 0-.519-.413-.746-.373.005-.271 0-.557-.183-.093-.556 0-.189-.54-.186-.745-.196-.016-.466 0-.138-.286-.093-.652-.805-.746-.93-.836-.098-1.404-.278-1.584.357-.625.465-.371.4 1.329.651 1.396.479.238.745.186-.385-.861-.652-.745-.596-1.133-.28-1.115.633-.458.932-.374.447-.381.373-.557-.728.114-1.025.093-.299-1.123-.465-1.21-.313-.282-.559-.279-.32-.668-.558-.651-.808-.49-.932-.373-.161-.591-.278-.464-.613-.161-.746-.093.037-.828-.093-.746-.789-.558-.93-.466-.672-1.238-.557-1.303 1.076 1.079 1.303 1.023.331.37.557.279.534.151.744 0 .865.787 1.025.653.383.005.651-.187 1.088.58 1.21.559-.167-.675-.372-.652-.555-.659-.744-.652-.93-.184-.744-.371-.186-.604 0-.559-1.071-.464-.839-.464-.233-.606 0-.559.56.233.839.28.091.512.373.558.742.328.928.279.513.559.746.559-.419-.372-.186-.559-1.678-1.255-1.396-1.301.977.231 1.303.278-.279-.373 0-.466-1.953-1.303-2.047-1.581 0-.605.279-.186 1.581 1.165 1.767 1.118-1.256-1.072-1.116-1.211.279-.047.464-.094-1.115-.837-.65-.744 1.21.884 1.489.837-.047-.836-.093-1.023-.465.046-.652 0-.278-.464 0-.466-.65-.79-.464-.837.326-.884.557-.837-.231-1.256 0-1.21.373 1.21.56 1.303.513-.466.652-.373-.699 1.07-.466 1.21.373.093.559.187-.186 1.025 0 1.023-.304 1.153-.128 1.158-.104.889.128.982.324-.511.557-.466.325-.977.558-.93-.14 2.328 0 2.328.047.511.466.371-.279 1.165 0 1.117.932-.325 1.208-.373c.282-.045.375.652.097 1.023s.278.699.649.466.186 1.163-.093 1.21.221.267-.167.389-.486 1.704-.762 1.751-1.166.512-.839.557 1.115-.184 1.304 0 .697-1.534.837-1.393-.465-.466-.28-.559.513.093.746.093-.372-.606-.186-.559.14-.604 0-.28 0-.278-.279-.185.233-1.025.093-.839.186 0 .465 0 .698.932 1.117.932.42-.652.744-.559.652-.233.839-.093.324-.326.464-.466.093.046.279 0 .14-.419.465-.466.372.047.746 0 .449-.668.741-.743z" fill="url(#L)" class="B C D"/><path d="M31.065 36.623c-.263.127.067 1.681-.246 1.812s-.085-.318-.611-.394-.3-.901-.564-.776-.309.93.043 1.12 1.129.8.967 1.007-.381.328-.693.459-.204.635-.567.728-.727-.193-.959-.164.559.351.242.439-.611-.394-.876-.268.581.538.563.774.016.514-.543.16-.595.12-.81.286-.064.995.311.995.983 1.145 1.278 1.248.83-.101.957.165-.227.823-.463.807-.744-1.08-1.06-.996-.657-.387-.98-.349-.181-1.1-.611-1.144-.697.038-1.015.125-.575-.492-.795-.371-.579.635-.452.898.98-.026.876.27 2.087.962 1.671 1.388 1.503 1.174 1.394 1.422-.578-.116-.739.09-.024.193-.128.485-.698.04-.913.207.373.75.299.9-.625.639-.995.308-.85.715-.82.946.816.556.759.844-.571-.071-.717.276.223 1.051.68.948 1.471.147 1.269.405-.844.011-1.004.219.631.954.227 1.097-1.325-.119-1.544-.373-.528.675-.914.206-.572.681-.347.981 1.562.886 1.129.799.633.955.112.922-.296.647-.255.969 1.429.951 1.636 1.113-.156.627-.002.75.567-.728.763-.657.478.458.276.717-.677.599-1.004.217-.75-.002-.993.312c-.244.308.89 1.155.32 1.084s1.694 1.198.99 1.189.531.5.922.639.596-.122.695-.461-.21-.959.164-.957.546-.116.922-.114.164-.582.673-.644a7.16 7.16 0 0 1 1.21-.054c.284.011-.258-.578.026-.566s.893.029 1.109-.137-1.543.048-1.454-.384-.588.165-.854-.083.462-.431.682-.553-.748-.752-.668-.854 1.778-.032 1.825.337-.591.541-.279.786 1.056.197 1.523.188.225.301.461.694.328.005.588.209-.008.328.068.552.268-.08.392.142-.151.298.069.553.956.538 1.015-.126.762.095 1.131.049.132-.437.476-.714c.339-.276.8.418 1.12-.043s.864.175 1.223.035-.421-.368-.103-.829 1.179-1.083 1.123-1.545-1.322.68-1.396.079-1.443-.667-1.442-1.043-.739.092-.969-.257-.491.577-.82.196-.693.459-.855.667.136.734-.232.405-.335.321-.796.379-.437-.885-.518-1.157-1.482-.24-1.258-.313a23.32 23.32 0 0 1 1.825-.413c.276-.034.199-1.056.531-1.001s.254.531.532.496.674-.599.97-.495.903.874.98.349 1.661.172 1.558-.284 1.19-.616 1.456-.368.785-.471.763-.655-.808.287-1.015.125.238-.733-.011-.842-.616.31-.737.09-.51.063-.739.09.238-.731-.254-.53.077-.901.337-1.075-.199-.864-.379-.797-.173.492-.706.368-.627 1.015-.995 1.06-.425-.416-.645-.67-.86-.129-1.028.032.148.826-.291.691-.559.397-.889.39-.321-.708-.206-.911.831-.103.831-.103.602-.822.141-1.142 1.093-.651 1.306-.817-.392-.513-.08-.645.318-.087.648-.08.467.365.797.371.547-.49.751-.749-.374-.752-.311-.993.725-.607.938-.773 0-.374-.172-.634 1.097-.228.959-.587.647-.454.959-.588-.242-.437-.531-.496.037-.848.289-.691.489.548.808.461.199-1.428.476-1.464.882.315.832-.101.623-.265.901-.299.312-.506.29-.692-.347.231-.624.265-.715-.1-.818-.558-.629-.156-.797-.369-.379-.047-.53.252.141.78-.117.577-1.017.125-1.142-.141-.286 1.489-.534 1.004-.616-.064-.831.101.605.724.38.799-.457-.272-.681-.2.074.601-.371.795-.779-.232-.946-.071.213.21.056.463-.59.167-1.015.125.076 1.022-.338 1.072.24 1.19-.037 1.224-.323-.337-.599-.303-.342.279-.407.52.392.14.232.347-.572.306-.739.092-.377.747-.672.644-.389.655-.578.633.122-.532-.172-.635.803-.333.589-.541.682-.178.89-.39-.353-.567-.633-.578-.647.079-.832.101.099-.339-.068-.553-.363.09-.474-.037.082-.477.487-.62.443-.198.738-.091.255-.972.556-.82 1.213-.431 1.442-.459.077-.524-.17-.635-.93.442-1.017.125-.786.847-.982.402-.728.183-.913.206-.149-.45.197-.68 1.732-.402 1.225-.715 1.816-1.253 1.229-1.464.86-.245.762-.656-.397-.561-.091-.739-.01-.842-.53-.496-.958-.164-.924.114-1.304.44-.857.667-.144.72.08.646.295.104-.035.472-.601.074-.831.103.381-.328.519-.346.095-.761-.183-.728.175-.864.544-.909.407-1.645.177-1.616-.512.016-.531.254-.305.179-.462.056.635-.546.556-.819-.287-.056-.568-.024c-.284.037-.165-1.289-.431-1.162z" fill="url(#M)" class="B C D"/><path d="M.02 39.723c.258-.085 1.72 1.152 2.035 1.127s.404-.338.78-.358-.46 1.022-.105 1.264.27-.242.523-.274.187.76.551.897-.018.954.284 1.086.138-.149.516-.17.225 1.77.47 1.844.083-1.001.338-1.032.156.384.461.461.377 1.467.622 1.541.937.026 1.235.209-.398 1.77.088 1.918-1.261 1.594-1.03 1.825.429.09.63-.053.639-1.645.888-1.624-.156-1.127.224-1.151.355.988.655 1.117.494-.646.675-.58.098 1.072.276 1.192.648-.264.755-.043.324 2.096-.31 2.203.335 1.198.026 1.171-.365.606-.194.834.602-1.224.841-1.097-.034 1.909-.541 1.971-.648.265-.417.495.36.19.596.369-.273.985.035 1.064.909-2.63 1.216-2.551.542 1.001.791 1.022.812.527.909.851 1.085-.002 1.117.373.953.079 1.301.373 1.134.493 1.581.372.332.621.839.558 2.111 2.479 1.397 2.791.5 2.767.186 2.793-5.305-.373-4.747-1.396-1.954 0-1.49-.558-.93-1.21-1.394-.932-1.721.922-2.097.945.385-.869-.312-.77-.339-.452-.719-.379-.582-.527-.934-.821.485-.543.916-.453.798-.572.302-.612-.937-.027-1.375-.011-1.349-.378-1.583-.558.274-.294.417-.496-1.704-.568-1.438-.757 1.002-.021 1.625.031-.946-.664-.436-.779 1.43.863 1.812.789-.808-.811-1.031-1.148.075-.897-.167-.969-.858-.231-1.36-.221-.591-1.163-1.173-.948-.44-.728-.169-.969-1.142-.574-1.165-1.054-1.506.032-1.331-.537-.774-1.231-.392-1.306.897.499 1.448.652.95-.133 1.386-.096.008.638.425.886.555.099.746.064-.408-.354-.188-.76-1.158-.363-1.454-.546.519-.222.655-.371-.791-.278-1.091-.41.478-.488.434-.707-.653-.426-1.083-.516-.844-1.876-.579-2.066.622.053.993.085-.51-.628.054-.635-.172-.914-.425-.885-.368-.082-.871-.071.666-.476.31-.718-.905-.394-1.34-.431.745-.681.569-.801-2.255-1.466-1.998-1.551z" fill="url(#N)" class="B C D"/><g fill="url(#J)"><path d="M19.709 41.385h-1.305c-.324-.047.094-.326-.093-.466s-.557-.093-.929-.093-.14-.652-.372-.839-1.396.003-1.674-.093.278-.558 0-.558-.512.419-.745.373.14-.744 0-.839-.93-.232-1.21-.371.326-.186.373-.373-.326-.279-.559-.372.466-.371.093-.371-.885-.418-1.117-.558.092-.559.463-.559.048-.744-.183-.744-.373.325-.652.278.046-.884-.092-1.117-.839.002-1.211-.093-.093-.371-.093-.557-.652-.095-.558-.373-.233-.186-.186-.651-1.07-.233-1.303-.279.233-.792.559-.746.046-.511-.093-.837-.699.371-.653-.186-1.023.188-.747-.279c.283-.466-1.766-1.117-1.114-1.21s.651-.326.744-.557-.977-.884-.744-1.023.697.233.93.278-.093-.744-.093-.744l-.559-.559s-.138-.604.093-.651.512.512.93.466.512.697.745.651-.373.186-.186.373.186.977.558.838.746.187.932.466 0 1.115 0 1.115l.093.651s.557.326.744 0 .14.977.373.93.046-.696.279-.744.42.513.651.281.14.79.372.929.837.373 1.023.279.093.466.28.466.743-.047.929 0-.047.373.187.373.884.511 1.116.464-.468-.464-.279-.651.652.325.929.187 1.488.93 1.583.464 1.489 1.489 1.489 1.489l.281 6.138z" class="B C D"/><path d="M36.182 18.554c.244.145-.826.874-.485 1.167s-1.07.389-.874.678-.098.974.194.974 0 .678.193.678.389-.047.487.195-1.167.633-.874.779.194.437.096.581-.924-.096-1.166.098-.291.727 0 .777 1.651-1.02 1.846-.777-1.263 1.018-1.069 1.456-1.02.438-1.264.583-.387.681-.095.681 1.068-.777 1.359-.777 1.215.874.778.972-.778-.098-.583.387-1.894.824-1.652 1.167-.728.487-.486.777.291 1.602.584 1.845-.778.631-.584.972-1.507.292-1.359.583-.438.389-.292.681-.73.048-.778.387-.73.583-.583.972-1.019.631-.874.874-.97.194-1.068.485.194.679.194.679.435-.144.486.098-1.361.583-1.07.776-.485.535-.485.874-.728-.289-.874 0-1.75-.289-2.04.196-2.622 1.067-2.622 1.067l.871-5.633 2.918.096c.389 0-.486-.582 0-.776s1.503.049 1.846 0 .68-1.215.29-1.166-.485-.728-.29-.874.872-.098.97-.292-.535-.339-.487-.68.098-.678.391-.678.631.291.97.387-.145-1.602.387-1.265c.537.341.487-.678.779-.484s.146-.826.389-.874.098.533.291.582.147-1.311.486-1.263.292-1.552 0-1.653-.922-.241-.874.099-.436.291-.583.582-.728.098-.678-.194.048-.824.485-.679-.05-1.554.291-1.456.631.146.972.194.242-1.118.583-.777.484-.73.68-.778c.191-.05.629.387.874.387s-.245-.776.096-.873.631.533.874.583.242-.196.486-.391-.244-.387-.196-.68-.096-1.165.196-.874.096-.728.29-.874.195.194.389.291 1.021-1.017 1.264-.87z" class="B C D"/></g><path d="M19.641 19.017c-.091.605-.185 1.07-.466 1.303s-.65.047-.836.278 1.117 1.208.558 1.208-.186 1.538-.651 1.491.465 1.767.093 1.767.232.884 0 1.024-.652-.186-.932 0 .559 1.072 0 1.118.513 1.163.373 1.303.884.371 1.116.744 0 .652-.186.651-.93-1.443-1.21-.837-.42-1.348-.651-.93-.932-.373-1.023-.187.975 1.489.557 1.676.651.466.651.836-.697.932-.557 1.118.743.419.93.373-.326-.652 0-.652 1.025.326 1.025.652-.838.791-.838 1.115.697.746.745 1.027-.047 1.162-.466 1.486 1.023.514.746.839.464 1.116.278 1.396.606.14.744.372.466 1.21.186 1.768 1.303.373 1.117.839.746 1.21.559 1.581.743.373.743.652.977 0 1.303 0 .093-1.258.279-1.303.791-.14.93.093.697.093.93 0-.234-.977-.558-.746-.837-1.954-1.023-1.488-.559-.839-.839-.374-.324-1.674-.65-1.488.14-1.21-.093-1.21 1.21-.651.836-.839.466-.79.746-.837.465.233.744.186-.233-.604 0-.651.279.14.651 0-.327-.746 0-.746.559-.185.836-.185.328-1.116-.091-.932-.372-.744-.279-.93.746-.372.746-.559-.606-.604-.466-.838 1.07-.416 1.304-.556-.558-.606-.746-.466-.651.372-.93.372.14-.838.372-.838h.746c.186 0-.326-1.024-.654-.93s.048-.93 0-1.023-.464-.233-.464-.373.977-.14 1.118-.186.417-1.441-.095-1.21-.697-.837-.465-.93.234-.046.465 0 .141-.744 0-1.023-.231-.047-.559-.093.235-1.814 0-1.767-.091.556-.278.742-.419-.278-.652-.186-.047.7-.278.747-.233.651-.466.651-.559-.558-.652-.28.839.839.839 1.21-.233 1.21-.558 1.303.138 1.163-.093 1.21.185.746 0 .93-.512-.045-.746.187.466.93.28 1.024.233.605.093.744-.559-.325-.745-.278-.278.792-.464.837-.42-.371-.559-.279-.231.186-.278.558.278.514.278.745-.464.467-.464.746-.652.559-.837.466.324-.839.557-.932-.233-.187-.279-.464.186-.511.371-.561c.189-.043.235-.556.096-.742s-.791.138-.837-.095 1.023-.651 1.394-.837-.14-.837-.278-.837-.42.047-.652 0 .327-1.443.746-1.396 1.814-1.023 1.115-1.117-.138-.93-.464-.837-.651.698-.93.651.743-.651.371-.744.14-.697 0-.93-.559 0-.837 0-.324-.93-.65-.93.557-.699.279-.747-.606-.464-.466-.649.28.047.558 0 .233-.187 0-.373-.091-.419-.371-.371 0-.934-.28-.84c-.287.087-.475-1.075-.567-.47z" fill="url(#L)" class="B C D"/><path d="M17.851 36.407c-.212-.128-.93 1.115-.741 1.449s.832 1.481.453 1.642 1.19 1.66.962 1.768-.651-1.135-.97-1.099-.029.23-.476.365-.14-.667-.381-.668.124.864-.169 1.012-.68.378-.848-.014-.058-1.123-.437-1.065-.398-.321-.658-.161-.433 1.141-.331 1.358.531.05.731.178-.387.638-.197.813 1.027 1.003 1.353.808.714.148.759.377-.316.479-.542.635-.003 1.332.279 1.407.769.57.379.667-1.293-1.436-1.606-1.348-.539-.917-.774-.956-.566 1.195-.214 1.194 1.849 1.09 1.9 1.42.274 1.135.029 1.156-.348 1.035-.213 1.194.966.573.964.81-.504.299-.591.527.207.069.416.196.363.826.093.885.657 1.118.657 1.118l.666.45s2.097-1.673 2.386-1.526.746-.203.746-.203.167-.006.43-.181-.437-.108-.437-.108.119-.272.278-.506.477-.183.679.069.601.169.85.015.351-.487.351-.487 1.308-.553 1.003-.618-.784.302-1.06.22-.532.312-.842.275-.821.217-.659-.161.508-.302.675-.22.059-.265.13-.541.17-.056.44.106.277-.487.322-.687.159.022.366.09.177-.252.227-.617.81-.57.93-.635.41-1.345.595-1.484-.133-.675-.28-.452-.626 1.216-.843 1.234-.429.14-.627.037.506-.76.688-.598.735-.986.483-1.031-.389-.565-.642-.54-.261-.455-.161-.614.545.249.783.286.502-1.033.652-1.088.312-.213.502-.162.41-.59.595-.529.751-.318.82-.182.265-.545.329-.398.52-.038.606.051.167-.812.25-.706.752-.392.842-.275.819-1.075.747-1.159-1.102.842-1.266.746-.35.294-.506.164-.455.045-.585-.141-.864.598-.957.435-.303-.068-.467-.304-.995.354-1.083.309.289-.623.446-.559.592-.535.738-.492.776-.002.673-.22.291-.551.133-.541.953-.247.769-.292.327-.543.132-.543-.493.12-.724.111-.193.48-.425.471-.661.175-.796.093-.535.445-.718.4.416-.28.278-.506 1.615-.9 1.406-.999-.823.04-1.09.022.309-.309.11-.452 1.844-.892 1.983-1.144.144-.59-.175-.235-1.518.828-1.654.744 1.242-.799 1.165-.961-.209-.098-.343-.179 1.075-.601.687-.599-1.16.627-1.367.529.234-.803.315-.977.354.135.511.126.329-.399.111-.453.697-.643.563-.725-.047-.921-.241-.921.481-1.176.284-1.176-.576 1.105-.745 1.16-.293-.549-.423-.487.295 1.173.079 1.266-.315.019-.482.072-.096 1.031-.244.996-.035 1.178-.174 1.149-.127.884-.331.93-.135-.559-.329-.559-.026-1.011-.218-1.011-.442 2.286-.552 2.26-.157.489-.453.273-.057 1.182-.264 1.084-.655-.493-.864-.594-.446.562-.313.978-.385.625-.624.326-.421 1.094-.213 1.194-.234.217.042.411-.024 1.748.184 1.848.792.718.526.702-.834-.394-1.025-.249-.183-1.626-.328-1.515.477-.364.352-.49-.424-.008-.606-.055.436-.514.279-.506.034-.614.066-.27.066-.272.263-.129.058-1.038.125-.83-.146-.035-.366-.088-.77.769-1.097.689-.175-.713-.454-.684-.456-.35-.636-.253-.179-.378-.256-.54-.084.029-.22-.053-.01-.434-.255-.541-.303-.027-.585-.143c-.271-.118-.186-.737-.398-.867z" fill="url(#O)" class="B C D"/><path d="M34.542 46.742c-.384.476-.698.833-1.056.894s-.587-.286-.865-.18.358 1.608-.124 1.327-.931 1.234-1.311.961-.486 1.763-.808 1.576-.242.88-.512.886-.471-.489-.805-.469-.056 1.207-.563.967-.141 1.263-.331 1.314.577.766.591 1.203-.328.562-.489.471-.08-1.716-.625-1.332.315-1.376-.096-1.133-.619-.789-.794-.675.099 1.778-.357 1.728.33.73.144 1.052-1.072.453-1.044.685.435.736.618.79.045-.726.326-.564.721.796.559 1.078-1.121.264-1.285.545.23.995.13 1.258-.625.983-1.15 1.054.628.958.223 1.099-.159 1.199-.46 1.348.453.424.457.696-.204 1.279-.728 1.623.94.975.548 1.285.034 1.42-.314 1.647.459.697.317.938.845.49 1.126.654.712-1.04.896-.986.754.278.758.546c.005.273.557.432.804.469s.29-.962-.109-.924.257-2.111-.136-1.803-.063-1.004-.538-.742.559-1.612.185-1.615.727-.975.527-1.093 1.374.045 1.144-.303.8-.45 1.065-.35.287.434.552.535.101-.641.326-.564.172.262.563.327.093-.808.374-.646.577.12.818.26.844-.802.388-.852.051-.831.226-.945.828.051.924-.109-.221-.827.018-.956 1.136.173 1.407.17-.18-.803-.409-.776-.75-.005-.993-.146.541-.654.742-.536l.645.372c.162.095.233-1.049-.098-1.133s.509-.779.517-.884-.286-.436-.217-.556.916.371 1.06.4 1.086-1.038.526-1.094-.181-1.073.066-1.038.225.077.401.234.495-.574.515-.885-.178-.157-.436-.363 1.112-1.449.889-1.526-.361.436-.615.503-.222-.452-.471-.489-.39.582-.616.505-.528.445-.729.329-.202-.764-.423-.569.304 1.144.116 1.467-.808.929-1.136.847-.464 1.076-.689.999-.213.737-.466.805-.419-.297-.738-.213-.066 1.039-.273 1.026-.103.638-.294.689-.318-.561-.503-.615-.638.543-.822.49-.176-.53-.343-.52-.295.043-.522.341-.016.585-.133.785-.637.171-.776.41-.844.156-.957-.016.702-.562.95-.527-.107-.278-.006-.541.416-.35.601-.296.483-.366.457-.598-.757-.276-.68-.501 1.213-.048 1.63-.022.299-.795.18-.864-.387-.171-.564-.328 1.004-1.083 1.344-.834 2.084.027 1.528-.403.346-.877.016-.959-.913.278-1.131.097.972-.19.696-.458.47-.533.467-.803-.482-.281-.724-.421.186-.969-.096-1.133.832-.321.616-.503-.291-.707-.077-.797.217.182.483.28.295-.045.187-.321.13-.409-.133-.508.467-.806.178-.866.141-1.165-.244-.687z" fill="url(#P)" class="B C D"/><path d="M19.104 47.207c.217.08.109 1.461.365 1.541s.035-.284.435-.405.146-.811.364-.731.328.77.072.973-.799.812-.655.972.328.244.583.326.219.527.51.567.546-.244.728-.244-.401.366-.145.407.437-.407.654-.326-.398.529-.363.733.037.443.437.079.473.042.654.164.146.852-.145.892-.656 1.094-.872 1.215-.658.002-.73.244.254.689.437.647.473-1.012.727-.972.474-.405.73-.405.037-.973.364-1.056.547-.038.8 0 .401-.485.582-.403.511.485.436.729-.763.08-.654.323-1.529 1.056-1.165 1.378-1.056 1.176-.948 1.38.438-.162.584 0 .037.163.146.405.546-.042.728.082-.218.688-.146.81.546.485.801.162.728.525.728.73-.583.569-.511.811.438-.122.583.16-.072.934-.435.893-1.13.283-.948.487.655-.082.8.08-.401.892-.072.974 1.02-.244 1.163-.487.475.527.729.08.511.528.365.812-1.129.932-.802.81-.4.893 0 .811.292.527.292.811-1.02.974-1.165 1.136.181.527.072.647-.509-.567-.655-.485-.328.447-.145.648.582.447.8.082.582-.082.8.162-.582 1.096-.145.972-1.202 1.218-.656 1.136-.363.487-.655.649-.473-.04-.582-.325.072-.852-.218-.812-.437-.04-.728 0-.181-.485-.583-.487-.726.041-.946.081.146-.525-.073-.485-.692.122-.873 0 1.202-.122 1.093-.485c-.109-.368.473.079.653-.163s-.4-.326-.579-.406.507-.73.434-.811-1.381.162-1.381.487.509.405.291.649-.8.285-1.165.323-.144.284-.29.649-.255.042-.437.243.037.284 0 .487-.217-.039-.29.162.146.244 0 .488-.693.567-.8 0-.584.16-.874.16-.145-.365-.437-.567-.584.445-.874.082-.654.243-.946.163.292-.366 0-.73-1.02-.811-1.02-1.216 1.094.445 1.092-.082 1.057-.731 1.02-1.054.582 0 .728-.324.437.445.656.08.583.325.727.487-.037.649.218.325.291.244.656.244.252-.811.289-1.055 1.129-.365.948-.405-1.237-.162-1.455-.162-.255-.892-.51-.811-.146.487-.364.487-.582-.447-.8-.323-.62.85-.728.403-1.274.326-1.24-.08-.98-.405-1.162-.162-.656-.325-.656-.487.656.162.8 0-.255-.607-.072-.729.51.204.582 0 .4.002.581 0-.254-.608.146-.487-.145-.769-.364-.891.074-.77.218-.73.184.405.584.243.583.813.874.813.291-.406.437-.651.654-.202.8-.08-.037.731.291.567.474.284.728.244.183-.649.074-.812-.656 0-.656 0-.546-.649-.218-.974-.91-.447-1.091-.567.254-.487 0-.569-.255-.04-.511 0-.328.366-.582.407-.474-.365-.656-.569.218-.687.145-.89-.617-.447-.8-.569-.035-.325.072-.568-.873-.08-.802-.406-.546-.323-.8-.403.148-.407.365-.487-.111-.731-.291-.567-.328.525-.581.487-.293-1.218-.51-1.218-.655.365-.655 0-.511-.162-.73-.162-.291-.405-.291-.567.291.164.509.162a.6.6 0 0 0 .583-.569c.035-.405.472-.202.583-.405s.29-.08.436.163-.037.689.146.487.8 0 .873-.244.363 1.258.511.812.473-.121.654 0-.401.689-.217.731.326-.284.507-.244.002.527.364.649.584-.285.728-.162-.144.202 0 .404.474.081.802 0 .035.893.363.893-.072 1.052.147 1.052.218-.323.437-.323.291.202.363.404-.29.161-.144.325.473.201.582 0 .364.607.581.485.365.527.511.487-.146-.445.071-.567-.654-.204-.51-.405-.544-.082-.727-.244.22-.527.438-.567.51 0 .654 0-.109-.284 0-.487.291.042.364-.08-.109-.404-.437-.487-.365-.122-.582 0-.29-.809-.511-.649-.982-.242-1.164-.242-.109-.447.073-.569.763.286.799 0 .693.651.802.244.582.082.728.082.071-.407-.218-.569-1.384-.162-1.02-.487-1.528-.892-1.091-1.134-.691-.123-.656-.487.255-.527 0-.648-.072-.731.364-.488.728-.243.728 0 1.055.244.727.488.183.606 0 .567-.218.12.074.403.474 0 .653 0-.326-.241-.435-.241-.144-.649.072-.649-.217-.731-.51-.731-.472-1.379-.29-1.379.401-.038.436.162.255.124.364 0-.545-.405-.51-.647.219-.082.437-.082c.222-.009.003-1.145.222-1.063z" class="B C D F"/><path d="M48.462 57.257c-.197-.17-1.949.383-2.219.241s-.229-.452-.554-.611.024 1.08-.381 1.162-.148-.317-.358-.44-.45.604-.823.59-.34.853-.657.857-.066-.182-.39-.342-.864 1.485-1.108 1.459.302-.919.09-1.043-.281.284-.58.239-.882 1.159-1.126 1.133-.836-.326-1.168-.277-.31 1.721-.797 1.669.516 1.883.227 2.002-.414-.08-.536-.282.051-1.697-.175-1.771.559-.941.233-1.104-.681.741-.998.746-.191-.76-.377-.765-.487.911-.689.953-.474-.479-.651-.321-1.073 1.74-.551 2.071-.746.935-.463 1.028.095.673-.14.812-.074-1.31-.332-1.29-.683 1.706-.26 1.952.472.477.183.596-.389.034-.666.104-.13.975-.428.93.183-2.674-.117-2.719-.853.686-1.081.612.36.439.153.693-1.11.12-1.278.44.458.525.037.654-.914.293-1.263.016-.335.641-.758.397-3.276 2.516-2.763 3.059 1.771.586 2.04.726 1.642-.058 2.015-.043.167-.319-.133-.365.263-.61.531-.469.898 1.099 1.222 1.258-.015-.916.564-.565.467-.275.776-.067.71-.251 1.131-.381-.225-.66-.64-.744-.488-.803-.035-.656.837.328 1.219.506 1.329.169 1.604.095c.275-.069-.132-.363-.184-.595s1.718.134 1.555-.133-.877-.395-1.446-.582 1.084-.235.676-.529-1.584.23-1.893.022 1.017-.416 1.34-.633.27-.821.51-.796.844.116 1.283.312.957-.813 1.391-.403.659-.482.511-.797 1.223-.082 1.42-.499 1.317.591 1.377.022 1.146-.803.836-1.014-.978.108-1.521.037-.791-.471-1.186-.601-.247.562-.71.625-.527-.119-.681-.221.494-.162.45-.604 1.158.111 1.489.059-.376-.39-.441-.575.8.048 1.118.045-.238-.612-.119-.789.735-.133 1.15-.053 1.446-1.348 1.282-1.615-.567-.186-.909-.299.686-.364.191-.58.497-.748.707-.626.356.064.795.261-.41-.67-.005-.752.946-.011 1.344.119-.403-.88-.201-.922c.193-.042 2.53-.457 2.337-.629z" class="B C D E"/></g></symbol></svg>